# xmcd
# Track frame offsets:
# 150
# 11424
# 25574
# 35292
# 44953
# 56004
# 68580
# 79957
# 92605
# 106976
# 118786
# 127301
# 139119
# 152379
# 163869
# 174878
# 188391
# 200528
# 210902
# 223356
# 234664
# 245741
# 259114
# 269444
#
# Disc length: 3763 seconds
# Revision: 0
# Processed by: cddbd v1.5.1PL2 Copyright (c) Steve Scherf et al.
# Submitted via: VisiTrax 2.9.10.228 - For more info visit www.synapsa.com
#
DISCID=540eb118
DTITLE=Various Artist - Country Music Is Here To Stay (Volume One) Disc 3
DYEAR=2005
DGENRE=Country
TTITLE0=Jean Shepard - A Satisfied Mind
TTITLE1=Wynn Stewart - Waltz Of The Angels
TTITLE2=Louvin Brothers - I Don't Believe You've Met My Baby
TTITLE3=Johnny Cash  * - Rock Island Line
TTITLE4=Carl Perkins - Dixie Fried
TTITLE5=Jimmy Wakely - One Has My Name (The Other Has My Heart)
TTITLE6=Tex Ritter - High Noon
TTITLE7=Roy Acuff - Wabash Cannonball
TTITLE8=Simon Crum - Country Music is Here To Stay
TTITLE9=Tennessee Ernie Ford  * - I'll Never Be Free
TTITLE10=Ricky Nelson - Stood Up
TTITLE11=Gene Vincent  * - Be Bop A Lula
TTITLE12=Tex Williams  * - Never Trust A Woman
TTITLE13=Jean Shepard and Ferlin Husky - A Dear John Letter
TTITLE14=Jean Shepard and Ferlin Husky - Forgive Me John
TTITLE15=Merle Travis - So Round, So Firm, So Fully Packed
TTITLE16=Mitchell Torok - Hootch Koochy Henry
TTITLE17=Johnny Cash  * - There You Go
TTITLE18=Tommy Collins - Watcha Gonna Do Now
TTITLE19=Sonny James - Young Love
TTITLE20=Slim Whitman - Keep It A Secret
TTITLE21=Hank Thompson  * - Wildwood Flower
TTITLE22=Louvin Brothers - You're Running A Wild
TTITLE23=Roy Acuff - The Great Speckled Bird
EXTD=EMI 7243 21932 2 6
EXTT0=1955
EXTT1=1956
EXTT2=1956
EXTT3=Johnny Cash and Tehe Tennessee Trio.\n1956
EXTT4=1956
EXTT5=1948
EXTT6=1952
EXTT7=1948
EXTT8=1958
EXTT9=tennessee Ernie Ford and Kay Starr.\n1950
EXTT10=1957
EXTT11=Gene Vincent and His Blue Caps.\n1956
EXTT12=Tex Williams and His Western Caravan.\n1947
EXTT13=1953
EXTT14=1953
EXTT15=1947
EXTT16=From "Hawaii".\n1954
EXTT17=Johnny Cash and The Tennessee Trio.\n1956
EXTT18=1954
EXTT19=1956
EXTT20=1952
EXTT21=Hank Thompson and His Bragos Valley Boys.\n1955
EXTT22=1956
EXTT23=1963
PLAYORDER=
